<?xml version="1.0" standalone="no"?>
<!DOCTYPE svg PUBLIC "-//W3C//DTD SVG 20010904//EN"
 "http://www.w3.org/TR/2001/REC-SVG-20010904/DTD/svg10.dtd">
<svg version="1.0" xmlns="http://www.w3.org/2000/svg"
 width="654.000000pt" height="654.000000pt" viewBox="0 0 654.000000 654.000000"
 preserveAspectRatio="xMidYMid meet">
<metadata>
Created by potrace 1.14, written by Peter Selinger 2001-2017
</metadata>
<g transform="translate(0.000000,654.000000) scale(0.100000,-0.100000)"
fill="#000000" stroke="none">
<path d="M3105 6530 c-11 -5 -50 -9 -87 -9 -38 -1 -68 -5 -68 -11 0 -5 -22
-10 -49 -10 -28 0 -53 -4 -56 -10 -3 -5 -24 -10 -46 -10 -21 0 -39 -4 -39 -10
0 -5 -16 -10 -35 -10 -19 0 -35 -4 -35 -10 0 -5 -16 -12 -35 -16 -19 -3 -35
-10 -35 -15 0 -5 -9 -9 -20 -9 -11 0 -20 -4 -20 -10 0 -5 -16 -10 -35 -10 -19
0 -35 -4 -35 -9 0 -5 -20 -17 -45 -27 -25 -9 -45 -21 -45 -25 0 -5 -9 -9 -20
-9 -11 0 -20 -4 -20 -10 0 -5 -7 -10 -15 -10 -8 0 -15 -4 -15 -10 0 -5 -9 -10
-20 -10 -11 0 -20 -3 -20 -8 0 -4 -16 -16 -35 -26 -19 -11 -35 -23 -35 -28 0
-4 -7 -8 -15 -8 -9 0 -26 -10 -39 -22 -38 -38 -76 -68 -84 -68 -4 0 -14 -9
-22 -20 -8 -11 -18 -20 -23 -20 -10 0 -37 -26 -37 -35 0 -10 -72 -75 -82 -75
-4 0 -8 -5 -8 -10 0 -6 -10 -21 -22 -34 -38 -38 -68 -76 -68 -84 0 -4 -9 -14
-20 -22 -11 -8 -20 -22 -20 -32 0 -10 -4 -18 -10 -18 -5 0 -17 -14 -26 -32 -9
-17 -25 -40 -35 -51 -10 -12 -19 -29 -19 -38 0 -10 -4 -19 -9 -21 -12 -4 -81
-136 -81 -154 0 -8 -4 -14 -10 -14 -5 0 -10 -11 -10 -25 0 -14 -4 -25 -9 -25
-4 0 -16 -21 -25 -47 -10 -27 -21 -56 -27 -65 -5 -10 -9 -29 -9 -43 0 -14 -4
-25 -10 -25 -5 0 -10 -20 -10 -45 0 -25 -4 -45 -10 -45 -5 0 -10 -6 -10 -14 0
-21 -78 -96 -100 -96 -11 0 -20 -4 -20 -10 0 -5 -13 -10 -30 -10 -16 0 -30 -3
-30 -7 0 -5 -18 -17 -40 -27 -22 -11 -40 -23 -40 -28 0 -4 -9 -8 -20 -8 -11 0
-20 -4 -20 -10 0 -5 -9 -10 -20 -10 -11 0 -20 -4 -20 -8 0 -5 -16 -16 -35 -25
-19 -9 -35 -21 -35 -27 0 -5 -7 -10 -15 -10 -9 0 -27 -11 -41 -25 -14 -14 -29
-25 -33 -25 -5 0 -27 -18 -50 -40 -22 -22 -45 -40 -50 -40 -6 0 -30 -20 -55
-45 -26 -25 -49 -45 -52 -45 -7 0 -54 -48 -54 -55 0 -8 -27 -35 -35 -35 -7 0
-55 -47 -55 -54 0 -3 -20 -27 -45 -53 -25 -25 -45 -50 -45 -55 0 -4 -14 -23
-31 -40 -17 -18 -38 -45 -47 -60 -9 -16 -20 -28 -24 -28 -4 0 -8 -9 -8 -20 0
-11 -4 -20 -10 -20 -5 0 -10 -5 -10 -10 0 -10 -8 -22 -37 -55 -7 -7 -13 -21
-13 -29 0 -9 -4 -16 -10 -16 -5 0 -10 -11 -10 -25 0 -14 -4 -25 -10 -25 -5 0
-10 -9 -10 -20 0 -11 -4 -20 -10 -20 -5 0 -12 -11 -16 -25 -3 -14 -10 -25 -15
-25 -5 0 -9 -9 -9 -19 0 -11 -4 -23 -10 -26 -5 -3 -10 -15 -10 -26 0 -10 -4
-19 -10 -19 -5 0 -10 -16 -10 -35 0 -19 -4 -35 -10 -35 -5 0 -10 -13 -10 -29
0 -16 -5 -31 -11 -33 -6 -2 -15 -25 -20 -51 -5 -26 -14 -68 -20 -94 -6 -27
-13 -90 -16 -140 -2 -51 -9 -93 -14 -93 -5 0 -9 -31 -9 -70 0 -40 4 -70 10
-70 6 0 10 -38 10 -93 0 -51 4 -97 9 -102 5 -6 11 -30 14 -55 8 -68 23 -130
36 -143 6 -6 11 -24 11 -39 0 -15 5 -28 10 -28 6 0 10 -11 10 -25 0 -14 5 -25
10 -25 6 0 10 -8 10 -17 0 -23 51 -133 62 -133 4 0 8 -11 8 -24 0 -13 4 -26 8
-28 4 -1 21 -25 37 -53 15 -27 37 -57 47 -66 10 -9 18 -24 18 -33 0 -9 5 -16
10 -16 6 0 10 -5 10 -11 0 -11 25 -39 35 -39 8 0 35 -27 35 -35 0 -3 20 -26
45 -51 25 -24 45 -46 45 -48 0 -3 20 -25 45 -49 25 -25 45 -48 45 -52 0 -3 25
-30 55 -60 30 -30 55 -59 55 -65 0 -5 4 -10 9 -10 23 0 52 -75 58 -151 3 -44
10 -79 14 -79 5 0 9 -27 9 -60 0 -33 4 -60 10 -60 6 0 10 -20 10 -44 0 -25 5
-48 10 -51 6 -3 10 -22 10 -41 0 -19 5 -34 10 -34 6 0 10 -8 10 -18 0 -10 7
-27 15 -38 8 -10 15 -27 15 -36 0 -10 5 -18 10 -18 6 0 10 -11 10 -25 0 -14 5
-25 10 -25 6 0 10 -9 10 -19 0 -11 5 -23 10 -26 6 -3 10 -13 10 -21 0 -9 6
-22 13 -29 31 -36 37 -46 37 -65 0 -11 4 -20 8 -20 5 0 15 -12 23 -28 8 -15
24 -38 37 -52 12 -14 22 -29 22 -35 0 -6 9 -17 20 -25 11 -8 20 -18 20 -22 0
-23 215 -238 238 -238 4 0 14 -9 22 -20 8 -11 18 -20 23 -20 4 0 13 -5 20 -10
47 -39 62 -50 78 -55 11 -4 19 -11 19 -16 0 -5 9 -9 20 -9 11 0 20 -4 20 -10
0 -5 7 -10 15 -10 8 0 15 -4 15 -10 0 -5 11 -12 25 -16 14 -3 25 -10 25 -15 0
-5 9 -9 20 -9 11 0 20 -4 20 -10 0 -5 11 -10 25 -10 14 0 25 -4 25 -10 0 -5
12 -10 26 -10 14 0 31 -6 38 -13 8 -7 33 -19 57 -26 24 -7 52 -17 61 -22 10
-5 31 -9 48 -9 16 0 30 -4 30 -10 0 -5 23 -10 50 -10 28 0 50 -4 50 -10 0 -6
31 -10 73 -10 40 0 78 -5 84 -11 17 -17 413 3 413 22 0 5 25 9 55 9 30 0 55 5
55 10 0 6 16 10 35 10 19 0 35 5 35 10 0 6 12 10 28 10 15 0 36 7 46 15 11 8
30 15 43 15 13 0 23 5 23 10 0 6 14 10 30 10 17 0 30 -4 30 -10 0 -5 9 -10 19
-10 11 0 26 -7 35 -15 8 -8 18 -15 23 -15 5 0 15 -9 23 -20 8 -11 21 -20 30
-20 8 0 23 -11 33 -24 10 -13 32 -30 48 -36 16 -7 29 -16 29 -21 0 -5 7 -9 15
-9 8 0 15 -4 15 -10 0 -5 7 -10 16 -10 8 0 22 -6 29 -13 30 -26 41 -33 73 -46
17 -7 32 -17 32 -22 0 -5 11 -9 25 -9 14 0 25 -4 25 -10 0 -5 9 -10 19 -10 11
0 26 -7 35 -15 8 -8 24 -15 35 -15 12 0 21 -4 21 -10 0 -5 16 -10 35 -10 19 0
35 -4 35 -10 0 -5 20 -10 45 -10 25 0 45 -4 45 -10 0 -6 35 -10 85 -10 55 0
85 -4 85 -11 0 -8 58 -9 198 -5 288 9 392 16 392 27 0 5 29 9 65 9 37 0 65 4
65 10 0 6 17 10 37 10 37 0 53 4 149 34 29 9 61 16 73 16 11 0 21 5 21 10 0 6
16 10 35 10 19 0 35 5 35 10 0 6 8 10 18 10 10 0 36 9 58 19 22 11 52 23 67
26 15 4 30 11 33 16 3 5 14 9 25 9 10 0 19 5 19 10 0 6 11 10 25 10 14 0 25 3
25 8 0 4 25 20 55 36 30 16 55 32 55 37 0 5 11 9 25 9 14 0 25 4 25 9 0 5 14
14 30 21 17 7 30 19 30 26 0 8 9 14 20 14 11 0 20 5 20 10 0 6 5 10 10 10 6 0
22 11 36 25 14 14 29 25 35 25 14 0 280 269 309 312 14 21 28 38 33 38 4 0 7
7 7 15 0 8 5 15 10 15 6 0 10 7 10 15 0 9 10 27 23 40 39 42 47 54 47 70 0 8
5 15 10 15 6 0 10 7 10 15 0 8 5 15 10 15 6 0 10 8 10 18 0 10 11 42 25 70 14
29 25 58 25 66 0 8 5 18 10 21 6 3 10 19 10 36 0 16 5 29 10 29 6 0 10 16 10
35 0 19 4 35 9 35 5 0 11 17 14 37 6 42 22 124 37 191 13 55 13 429 0 484 -12
53 -31 152 -37 196 -3 17 -9 32 -14 32 -5 0 -9 16 -9 35 0 19 -4 35 -10 35 -5
0 -10 11 -10 25 0 14 -4 33 -9 43 -5 9 -17 37 -26 62 -9 25 -21 53 -26 62 -12
23 -12 203 0 226 11 22 31 113 38 175 3 26 9 47 14 47 5 0 9 20 9 45 0 25 4
45 9 45 5 0 12 30 15 68 3 37 10 117 16 177 11 120 3 425 -11 425 -5 0 -9 25
-9 55 0 30 -4 55 -10 55 -5 0 -10 12 -10 28 0 15 -9 52 -21 82 -11 30 -23 63
-26 73 -3 9 -9 17 -14 17 -5 0 -9 11 -9 25 0 14 -4 25 -10 25 -5 0 -10 9 -10
20 0 11 -4 20 -10 20 -5 0 -10 6 -10 14 0 16 -51 110 -62 114 -4 2 -8 10 -8
18 0 8 -4 14 -10 14 -5 0 -10 7 -10 15 0 9 -10 27 -22 40 -33 35 -48 53 -48
59 0 3 -20 27 -45 53 -25 25 -45 51 -45 56 0 10 -25 37 -35 37 -4 0 -16 11
-27 25 -11 14 -24 25 -28 25 -5 0 -33 23 -62 50 -29 28 -60 53 -70 56 -10 3
-18 10 -18 15 0 5 -5 9 -10 9 -6 0 -16 5 -23 10 -56 47 -74 60 -84 60 -7 0
-13 5 -13 10 0 6 -7 10 -15 10 -8 0 -15 5 -15 10 0 6 -9 10 -20 10 -11 0 -20
4 -20 10 0 5 -11 12 -25 16 -14 3 -25 10 -25 15 0 5 -9 9 -20 9 -11 0 -20 5
-20 10 0 6 -9 10 -20 10 -11 0 -20 5 -20 10 0 6 -11 10 -25 10 -14 0 -25 5
-25 10 0 6 -6 10 -14 10 -8 0 -34 11 -57 25 -24 14 -52 25 -61 25 -10 0 -18 5
-18 10 0 6 -7 10 -15 10 -8 0 -15 5 -15 10 0 6 -9 10 -20 10 -11 0 -20 4 -20
10 0 9 -25 42 -57 76 -7 7 -13 26 -13 43 0 17 -4 31 -10 31 -5 0 -10 16 -10
35 0 19 -4 43 -9 53 -5 9 -18 38 -28 64 -10 27 -21 48 -25 48 -5 0 -8 14 -8
30 0 17 -4 30 -10 30 -5 0 -10 11 -10 25 0 14 -4 25 -10 25 -5 0 -10 9 -10 20
0 11 -4 20 -10 20 -5 0 -10 7 -10 15 0 8 -11 25 -25 39 -14 14 -25 34 -25 46
0 11 -4 20 -10 20 -5 0 -10 7 -10 15 0 9 -11 28 -25 43 -14 15 -25 31 -25 36
0 5 -8 16 -18 25 -9 9 -30 34 -47 56 -16 22 -42 52 -57 67 -15 14 -28 29 -28
32 0 11 -48 56 -60 56 -5 0 -10 5 -10 10 0 11 -45 60 -54 60 -3 0 -27 20 -53
45 -25 25 -52 45 -58 45 -6 0 -17 9 -25 20 -8 11 -22 20 -32 20 -10 0 -18 5
-18 10 0 6 -16 18 -35 27 -19 9 -35 20 -35 25 0 4 -7 8 -15 8 -8 0 -15 5 -15
10 0 6 -9 10 -20 10 -11 0 -20 5 -20 10 0 6 -9 10 -19 10 -10 0 -21 7 -25 15
-3 8 -15 15 -26 15 -11 0 -20 5 -20 10 0 6 -9 10 -20 10 -11 0 -20 5 -20 10 0
6 -11 10 -25 10 -14 0 -25 5 -25 10 0 6 -13 10 -29 10 -16 0 -31 3 -33 8 -5
12 -77 42 -103 42 -13 0 -27 5 -30 10 -3 6 -21 10 -40 10 -19 0 -37 5 -40 10
-3 6 -28 10 -56 10 -27 0 -49 4 -49 9 0 19 -456 38 -495 21z m315 -820 c0 -5
17 -10 38 -10 20 -1 55 -7 77 -15 22 -8 48 -15 58 -15 9 0 17 -4 17 -10 0 -5
14 -10 30 -10 17 0 30 -4 30 -10 0 -5 11 -10 25 -10 14 0 25 -4 25 -10 0 -5 9
-10 20 -10 11 0 20 -4 20 -8 0 -5 18 -17 40 -28 22 -10 40 -22 40 -26 0 -5 6
-8 13 -8 7 0 19 -9 27 -20 8 -11 19 -20 25 -20 19 0 145 -129 145 -148 0 -4 9
-14 20 -22 11 -8 20 -20 20 -26 0 -6 11 -23 25 -38 14 -15 25 -34 25 -42 0 -7
5 -14 10 -14 6 0 10 -11 10 -25 0 -14 5 -25 10 -25 6 0 10 -13 10 -30 0 -25
-4 -30 -24 -30 -14 0 -28 -4 -31 -10 -3 -5 -17 -10 -30 -10 -13 0 -30 -7 -39
-15 -8 -8 -28 -15 -45 -15 -17 0 -31 -4 -31 -10 0 -5 -11 -10 -25 -10 -14 0
-25 -4 -25 -10 0 -5 -13 -10 -30 -10 -16 0 -30 -4 -30 -10 0 -5 -11 -10 -24
-10 -13 0 -29 -7 -36 -15 -7 -8 -21 -15 -31 -15 -11 0 -19 -4 -19 -10 0 -5
-11 -10 -25 -10 -14 0 -25 -4 -25 -10 0 -5 -7 -10 -15 -10 -8 0 -15 5 -15 10
0 6 -7 10 -15 10 -8 0 -15 4 -15 9 0 5 -11 12 -25 15 -14 4 -25 11 -25 16 0 6
-9 10 -20 10 -11 0 -20 5 -20 10 0 6 -11 10 -25 10 -14 0 -25 5 -25 10 0 6
-13 10 -30 10 -16 0 -30 5 -30 10 0 6 -9 10 -21 10 -11 0 -30 5 -42 12 -42 23
-113 31 -262 31 -145 1 -246 -13 -253 -33 -2 -6 -17 -10 -33 -10 -16 0 -29 -4
-29 -10 0 -5 -11 -10 -25 -10 -14 0 -25 -4 -25 -10 0 -5 -11 -10 -25 -10 -14
0 -25 -4 -25 -10 0 -5 -7 -10 -15 -10 -15 0 -25 -6 -60 -37 -7 -7 -18 -13 -24
-13 -6 0 -11 -3 -11 -8 0 -4 -20 -18 -45 -31 -25 -13 -45 -28 -45 -33 0 -13
-26 -38 -39 -38 -6 0 -11 -4 -11 -10 0 -5 -5 -10 -12 -10 -12 0 -138 -130
-138 -143 0 -10 -26 -37 -34 -37 -3 0 -6 36 -6 80 0 47 4 80 10 80 6 0 10 32
10 75 0 41 4 75 9 75 5 0 12 20 15 45 4 25 11 45 17 45 5 0 9 13 9 29 0 17 5
33 10 36 6 3 10 15 10 26 0 10 5 19 10 19 6 0 10 11 10 25 0 14 5 25 10 25 6
0 10 7 10 15 0 15 6 25 38 60 6 7 12 18 12 24 0 6 5 11 10 11 6 0 10 7 10 15
0 20 205 225 225 225 8 0 15 5 15 10 0 6 5 10 11 10 6 0 17 6 24 13 35 31 45
37 60 37 8 0 15 5 15 10 0 6 11 10 25 10 14 0 25 5 25 10 0 6 7 10 15 10 8 0
23 4 33 10 26 14 110 40 132 40 11 0 20 5 20 10 0 6 65 10 175 10 110 0 175
-4 175 -10z m-1490 -1620 l0 -90 -41 0 c-56 0 -169 -21 -169 -32 0 -4 -13 -8
-30 -8 -16 0 -30 -4 -30 -10 0 -5 -13 -10 -30 -10 -16 0 -30 -3 -30 -8 0 -4
-15 -14 -32 -21 -18 -8 -38 -20 -45 -25 -31 -28 -43 -36 -48 -36 -3 0 -15 -9
-27 -20 -12 -11 -28 -20 -35 -20 -7 0 -13 -5 -13 -11 0 -11 -25 -39 -35 -39
-8 0 -55 -47 -55 -55 0 -6 -14 -24 -46 -58 -11 -12 -27 -37 -35 -55 -7 -17
-16 -32 -19 -32 -3 0 -19 -25 -35 -55 -17 -30 -33 -55 -37 -55 -5 0 -8 -11 -8
-25 0 -14 -4 -25 -10 -25 -5 0 -10 20 -10 45 0 25 4 45 9 45 5 0 11 19 15 43
8 51 48 171 58 175 5 2 8 15 8 28 0 13 5 24 10 24 6 0 10 9 10 20 0 11 4 20 9
20 5 0 13 10 17 23 4 12 15 29 25 38 11 9 19 24 19 33 0 9 5 16 10 16 6 0 10
5 10 11 0 11 25 39 35 39 3 0 26 20 51 45 24 25 50 45 57 45 7 0 19 9 27 20 8
11 22 20 32 20 9 0 20 5 23 10 3 6 13 10 21 10 9 0 22 7 30 15 9 8 26 15 40
15 13 0 24 5 24 10 0 6 20 10 44 10 25 0 48 5 51 10 3 6 46 10 96 10 l89 0 0
-90z m2868 75 c28 -4 52 -11 52 -16 0 -5 12 -9 28 -9 15 0 36 -7 46 -15 11 -8
28 -15 38 -15 10 0 18 -4 18 -10 0 -5 9 -10 19 -10 11 0 23 -4 26 -10 3 -5 15
-10 26 -10 10 0 19 -4 19 -10 0 -5 5 -10 10 -10 12 0 26 -11 75 -57 19 -18 37
-33 40 -33 10 0 35 -28 35 -39 0 -6 4 -11 8 -11 5 0 15 -12 23 -27 14 -28 24
-43 47 -68 6 -7 12 -23 12 -34 0 -12 3 -21 8 -21 4 0 13 -15 20 -32 27 -66 30
-74 46 -118 9 -25 16 -62 16 -83 0 -20 5 -37 10 -37 6 0 10 -43 10 -110 0 -67
-4 -110 -10 -110 -5 0 -10 -18 -10 -40 0 -21 -6 -54 -14 -72 -8 -18 -20 -54
-28 -80 -7 -27 -16 -48 -20 -48 -4 0 -8 -11 -8 -25 0 -14 -4 -25 -10 -25 -5 0
-10 -9 -10 -20 0 -11 -3 -20 -8 -20 -4 0 -16 -16 -26 -35 -11 -19 -23 -35 -28
-35 -4 0 -8 -9 -8 -20 0 -11 -4 -20 -10 -20 -6 0 -10 65 -10 175 0 110 -4 175
-10 175 -5 0 -10 21 -10 47 0 47 -10 89 -36 151 -8 18 -14 42 -14 52 0 11 -4
20 -10 20 -5 0 -10 9 -10 20 0 11 -4 20 -10 20 -5 0 -10 11 -10 25 0 14 -3 25
-8 25 -4 0 -16 16 -26 35 -11 19 -23 35 -28 35 -4 0 -8 7 -8 17 0 18 -166 183
-184 183 -6 0 -18 9 -26 20 -8 11 -22 20 -32 20 -10 0 -18 5 -18 10 0 6 -11
10 -25 10 -14 0 -25 3 -25 8 0 10 -58 42 -76 42 -8 0 -14 5 -14 10 0 6 -16 10
-35 10 -19 0 -35 5 -35 10 0 6 -18 10 -40 10 -22 0 -40 4 -40 9 0 5 -21 11
-47 14 -27 3 -63 9 -80 12 l-33 7 0 90 0 89 203 -5 c111 -2 226 -7 255 -11z"/>
</g>
</svg>
